<?xml version="1.0" encoding="UTF-8" standalone="no"?>
<svg
   xmlns:dc="http://purl.org/dc/elements/1.1/"
   xmlns:cc="http://creativecommons.org/ns#"
   xmlns:rdf="http://www.w3.org/1999/02/22-rdf-syntax-ns#"
   xmlns:svg="http://www.w3.org/2000/svg"
   xmlns="http://www.w3.org/2000/svg"
   id="svg8"
   version="1.1"
   viewBox="0 0 21.264584 20.54294"
   height="20.54294mm"
   width="21.264584mm">
  <defs
     id="defs2" />
  <metadata
     id="metadata5">
    <rdf:RDF>
      <cc:Work
         rdf:about="">
        <dc:format>image/svg+xml</dc:format>
        <dc:type
           rdf:resource="http://purl.org/dc/dcmitype/StillImage" />
        <dc:title></dc:title>
      </cc:Work>
    </rdf:RDF>
  </metadata>
  <g
     transform="translate(-1.3677083,-1.0165362)"
     id="layer1">
    <path
       id="path8417"
       d="m 14.719069,12.234952 -0.02431,-0.0044 -0.02431,-0.0043 c -1.276345,-0.625599 -1.873598,-1.45095 -1.718058,-2.3916046 0.15554,-0.9406545 1.596844,-1.3354092 2.227269,-0.3370267 0.935414,-0.7205572 2.152934,0.1459488 1.975369,1.0826953 -0.177565,0.936747 -1.022303,1.506247 -2.435963,1.654563 z m -5.4381389,8e-6 C 7.8672707,12.086644 7.0225322,11.517144 6.8449671,10.580397 6.6674027,9.6436503 7.8849224,8.7771444 8.8203362,9.4977015 9.450761,8.4993192 10.892065,8.8940738 11.047605,9.8347282 11.203145,10.775383 10.605892,11.600734 9.3295463,12.226333 l -0.024306,0.0043 z M 12,13.68726 c 0.524996,0 0.844073,0.843454 1.36864,0.867065 0.410819,0.01849 0.718455,-0.689938 1.117668,-0.580495 0.402671,0.110392 0.355302,0.973232 0.753742,1.101225 0.769637,0.247237 1.81878,-1.68667 2.251046,-0.936333 0.570748,0.990718 -1.20245,2.333901 -2.251046,2.488101 -0.286905,0.04219 -0.465245,-0.50477 -0.753742,-0.479353 -0.476612,0.042 -0.642977,0.936635 -1.117668,1.000082 -0.500221,0.06686 -0.864821,-0.713511 -1.36864,-0.713511 -0.503819,0 -0.868415,0.780339 -1.36864,0.713511 C 10.156593,17.08413 9.9901021,16.18939 9.5134121,16.14747 9.224992,16.122106 9.0467778,16.668977 8.7599499,16.626823 7.7113436,16.472715 5.9381561,15.12944 6.508904,14.138722 6.9411693,13.388385 7.9903326,15.322368 8.7599499,15.075055 9.1583249,14.947039 9.1108092,14.084269 9.5134121,13.97383 9.9126936,13.864302 10.220457,14.572843 10.63136,14.554325 11.155926,14.530689 11.475004,13.68726 12,13.68726 Z M 11.547092,3.4032324 c -0.372426,-0.021762 -0.809966,0.3379418 -0.947138,0.717804 -0.228861,0.6337776 0.37525,1.2742706 0.615443,1.9400935 -0.213275,0.029047 -0.418718,0.068832 -0.621229,0.1213706 C 9.9337012,6.0933897 9.3445389,5.9866527 9.3445389,5.9866527 9.1451468,5.9624251 8.9491612,5.952535 8.7569166,5.9560048 5.8732399,6.0080161 3.8336102,9.0840054 3.8336102,12.431258 c 0,3.570403 2.3206313,6.832573 5.5109287,6.444911 0,0 0.2538892,-0.04389 0.5746728,-0.09532 C 10.563143,19.03871 11.242486,19.173772 12,19.173772 c 0.757514,0 1.436865,-0.135062 2.080788,-0.392923 0.320784,0.05144 0.574673,0.09532 0.574673,0.09532 3.190297,0.387662 5.510929,-2.874508 5.510929,-6.444911 0,-3.5704023 -2.320632,-6.8322664 -5.510929,-6.4446037 0,0 -0.589162,0.1067373 -1.249629,0.1958479 -0.192439,-0.049926 -0.38823,-0.08772 -0.590103,-0.1164671 -0.0658,-0.9896001 -0.313512,-2.3098824 -1.11409,-2.6290866 -0.04946,-0.019728 -0.101341,-0.030605 -0.154547,-0.033711 z"
       style="fill:#e6e6e6;fill-rule:evenodd;stroke:none;stroke-width:0.20578004px;stroke-linecap:butt;stroke-linejoin:miter;stroke-opacity:1" />
  </g>
</svg>
