<?xml version="1.0" encoding="UTF-8" standalone="no"?>
<svg
   xmlns:dc="http://purl.org/dc/elements/1.1/"
   xmlns:cc="http://creativecommons.org/ns#"
   xmlns:rdf="http://www.w3.org/1999/02/22-rdf-syntax-ns#"
   xmlns:svg="http://www.w3.org/2000/svg"
   xmlns="http://www.w3.org/2000/svg"
   xmlns:xlink="http://www.w3.org/1999/xlink"
   width="116.37096mm"
   height="115.94915mm"
   viewBox="0 0 116.37096 115.94915"
   version="1.1"
   id="svg8">
  <defs
     id="defs2">
    <linearGradient
       id="linearGradient4922">
      <stop
         style="stop-color:#ff5555;stop-opacity:1"
         offset="0"
         id="stop4918" />
      <stop
         id="stop4941"
         offset="0.23167849"
         style="stop-color:#ff5555;stop-opacity:1" />
      <stop
         style="stop-color:#ffa030;stop-opacity:1"
         offset="0.31678486"
         id="stop4943" />
      <stop
         id="stop4933"
         offset="0.42080376"
         style="stop-color:#ffa030;stop-opacity:1" />
      <stop
         style="stop-color:#abc837;stop-opacity:1"
         offset="0.49408984"
         id="stop4945" />
      <stop
         id="stop4931"
         offset="0.58628833"
         style="stop-color:#abc837;stop-opacity:1" />
      <stop
         style="stop-color:#37c5c8;stop-opacity:1"
         offset="0.65721035"
         id="stop4935" />
      <stop
         id="stop4937"
         offset="0.74231678"
         style="stop-color:#37c5c8;stop-opacity:1" />
      <stop
         style="stop-color:#d493ff;stop-opacity:1"
         offset="0.8132388"
         id="stop4939" />
      <stop
         style="stop-color:#d493ff;stop-opacity:1"
         offset="1"
         id="stop4920" />
    </linearGradient>
    <linearGradient
       gradientTransform="matrix(3.7795276,0,0,3.7795276,1.0904138e-6,-120.94388)"
       xlink:href="#linearGradient4922"
       id="linearGradient4924-7"
       x1="47.821644"
       y1="184.41988"
       x2="153.17871"
       y2="184.41988"
       gradientUnits="userSpaceOnUse" />
    <clipPath
       clipPathUnits="userSpaceOnUse"
       id="clipPath4636">
      <path
         style="fill:#ff6600;fill-opacity:1;fill-rule:evenodd;stroke:none;stroke-width:3.77952766;stroke-linecap:butt;stroke-linejoin:miter;stroke-miterlimit:4;stroke-dasharray:none;stroke-opacity:1"
         d="m 180.41602,630.77931 c -5.58481,0.0431 -10.99873,1.35239 -15.55079,4.06639 -13.78476,8.21866 -19.76231,24.18305 -22.31641,37.70506 -1.88757,9.99326 -2.54381,22.00883 -1.71289,36.25981 11.70779,11.09805 22.914,18.70836 33.5039,23.00387 17.06367,6.92133 36.39457,8.68728 50.7715,-1.87303 14.17709,-10.4135 11.49575,-10.74047 19.61132,-4.90431 3.39944,2.44464 6.07535,5.78423 9.73437,7.76171 7.65338,4.1362 16.43144,5.59454 24.31836,4.1133 5.81723,-1.09251 11.33863,-3.45838 15.39258,-7.1582 10.07316,-9.19321 8.55461,-10.31739 16.90234,-2.76952 6.44797,5.83011 13.88169,10.36418 21.83789,11.60349 7.38429,1.15022 14.36688,0.29027 20.66211,-2.68555 3.38369,-1.59949 6.42784,-3.73379 8.63867,-5.81249 2.21084,-2.07871 3.67646,-4.06428 5.25,-5.96485 3.81654,-4.60978 5.12707,-0.90743 8.86133,3.48438 5.09201,5.98866 12.34881,9.63432 19.40236,11.14061 10.4106,2.2232 22.37496,1.73205 31.87696,-2.90819 4.42881,-2.1628 6.81793,-4.97575 7.5332,-7.61719 0.71528,-2.64143 -0.25927,-5.14462 -2.60938,-6.78708 -2.35011,-1.64247 -6.07544,-2.42385 -10.85938,-1.62308 1.49265,-0.31408 2.89557,-0.76457 4.20506,-1.33202 1.3095,-0.56746 2.49789,-1.29377 3.64649,-2.03709 3.95834,-2.56173 5.38205,-2.12584 8.68751,4.76171 4.29782,8.95533 13.8344,16.17944 22.71096,17.66797 7.46471,1.25174 14.12337,1.02187 19.86523,-0.40626 11.33114,-2.81825 19.78568,-10.88659 23.86522,-20.61525 2.19258,-5.22863 3.32814,-11.2535 3.709,-17.83007 0.77874,-13.44801 -3.27923,-29.93318 -12.43362,-38.44335 -4.83904,-4.49851 -9.66123,-2.11506 -11.79099,3.0918 -2.53149,6.18898 0.51473,11.54344 1.33591,16.90235 -6.30187,-7.25805 -16.36192,-9.2194 -25.24022,-7.94728 -4.72456,0.67695 -9.55944,2.52034 -13.59571,5.63671 -8.02175,6.19336 -11.52775,1.39854 -21.78709,-4.55857 -2.77357,-1.61053 -5.6965,-2.836 -8.65822,-3.7754 -3.03053,-0.96121 -6.10253,-1.5241 -9.08008,-1.75197 -9.51413,-0.72801 -18.70097,1.66889 -24.83204,6.83207 -10.60151,8.92781 -12.27968,4.7125 -20.38476,-1.17385 -2.78563,-2.02307 -5.8435,-3.55635 -8.93945,-4.88674 -4.16151,-1.78825 -8.60882,-3.02139 -13.25,-3.07419 -2.86176,-0.034 -5.36962,0.28346 -7.83594,0.74411 -5.6221,1.05011 -10.79256,3.38797 -14.99414,7.07426 -1.11306,0.97651 -2.17472,2.00889 -3.33594,2.92769 -6.38797,5.0544 -10.38542,2.02712 -18.14453,-3.56832 -7.03156,-5.07077 -15.11934,-8.95533 -24.07617,-9.01368 -2.37617,-0.0151 -4.77803,0.19313 -7.17383,0.64063 -7.74107,1.44551 -13.52738,6.24079 -19.42578,10.46679 -7.32075,5.24504 -11.59718,-2.06434 -18.59766,-5.41799 -2.88289,-1.38108 -7.40231,-3.6528 -14.68358,-3.53121 7.99994,-12.68039 -3.99178,-28.18957 -14.44141,-32.88673 -5.23178,-2.3517 -10.98746,-3.57441 -16.57226,-3.53125 z"
         id="path4638" />
    </clipPath>
    <clipPath
       clipPathUnits="userSpaceOnUse"
       id="clipPath4636-6">
      <path
         style="fill:#ff6600;fill-opacity:1;fill-rule:evenodd;stroke:none;stroke-width:3.77952766;stroke-linecap:butt;stroke-linejoin:miter;stroke-miterlimit:4;stroke-dasharray:none;stroke-opacity:1"
         d="m 180.41602,630.77931 c -5.58481,0.0431 -10.99873,1.35239 -15.55079,4.06639 -13.78476,8.21866 -19.76231,24.18305 -22.31641,37.70506 -1.88757,9.99326 -2.54381,22.00883 -1.71289,36.25981 11.70779,11.09805 22.914,18.70836 33.5039,23.00387 17.06367,6.92133 36.39457,8.68728 50.7715,-1.87303 14.17709,-10.4135 11.49575,-10.74047 19.61132,-4.90431 3.39944,2.44464 6.07535,5.78423 9.73437,7.76171 7.65338,4.1362 16.43144,5.59454 24.31836,4.1133 5.81723,-1.09251 11.33863,-3.45838 15.39258,-7.1582 10.07316,-9.19321 8.55461,-10.31739 16.90234,-2.76952 6.44797,5.83011 13.88169,10.36418 21.83789,11.60349 7.38429,1.15022 14.36688,0.29027 20.66211,-2.68555 3.38369,-1.59949 6.42784,-3.73379 8.63867,-5.81249 2.21084,-2.07871 3.67646,-4.06428 5.25,-5.96485 3.81654,-4.60978 5.12707,-0.90743 8.86133,3.48438 5.09201,5.98866 12.34881,9.63432 19.40236,11.14061 10.4106,2.2232 22.37496,1.73205 31.87696,-2.90819 4.42881,-2.1628 6.81793,-4.97575 7.5332,-7.61719 0.71528,-2.64143 -0.25927,-5.14462 -2.60938,-6.78708 -2.35011,-1.64247 -6.07544,-2.42385 -10.85938,-1.62308 1.49265,-0.31408 2.89557,-0.76457 4.20506,-1.33202 1.3095,-0.56746 2.49789,-1.29377 3.64649,-2.03709 3.95834,-2.56173 5.38205,-2.12584 8.68751,4.76171 4.29782,8.95533 13.8344,16.17944 22.71096,17.66797 7.46471,1.25174 14.12337,1.02187 19.86523,-0.40626 11.33114,-2.81825 19.78568,-10.88659 23.86522,-20.61525 2.19258,-5.22863 3.32814,-11.2535 3.709,-17.83007 0.77874,-13.44801 -3.27923,-29.93318 -12.43362,-38.44335 -4.83904,-4.49851 -9.66123,-2.11506 -11.79099,3.0918 -2.53149,6.18898 0.51473,11.54344 1.33591,16.90235 -6.30187,-7.25805 -16.36192,-9.2194 -25.24022,-7.94728 -4.72456,0.67695 -9.55944,2.52034 -13.59571,5.63671 -8.02175,6.19336 -11.52775,1.39854 -21.78709,-4.55857 -2.77357,-1.61053 -5.6965,-2.836 -8.65822,-3.7754 -3.03053,-0.96121 -6.10253,-1.5241 -9.08008,-1.75197 -9.51413,-0.72801 -18.70097,1.66889 -24.83204,6.83207 -10.60151,8.92781 -12.27968,4.7125 -20.38476,-1.17385 -2.78563,-2.02307 -5.8435,-3.55635 -8.93945,-4.88674 -4.16151,-1.78825 -8.60882,-3.02139 -13.25,-3.07419 -2.86176,-0.034 -5.36962,0.28346 -7.83594,0.74411 -5.6221,1.05011 -10.79256,3.38797 -14.99414,7.07426 -1.11306,0.97651 -2.17472,2.00889 -3.33594,2.92769 -6.38797,5.0544 -10.38542,2.02712 -18.14453,-3.56832 -7.03156,-5.07077 -15.11934,-8.95533 -24.07617,-9.01368 -2.37617,-0.0151 -4.77803,0.19313 -7.17383,0.64063 -7.74107,1.44551 -13.52738,6.24079 -19.42578,10.46679 -7.32075,5.24504 -11.59718,-2.06434 -18.59766,-5.41799 -2.88289,-1.38108 -7.40231,-3.6528 -14.68358,-3.53121 7.99994,-12.68039 -3.99178,-28.18957 -14.44141,-32.88673 -5.23178,-2.3517 -10.98746,-3.57441 -16.57226,-3.53125 z"
         id="path4638-0" />
    </clipPath>
    <clipPath
       clipPathUnits="userSpaceOnUse"
       id="clipPath4636-0">
      <path
         style="fill:#ff6600;fill-opacity:1;fill-rule:evenodd;stroke:none;stroke-width:3.77952766;stroke-linecap:butt;stroke-linejoin:miter;stroke-miterlimit:4;stroke-dasharray:none;stroke-opacity:1"
         d="m 180.41602,630.77931 c -5.58481,0.0431 -10.99873,1.35239 -15.55079,4.06639 -13.78476,8.21866 -19.76231,24.18305 -22.31641,37.70506 -1.88757,9.99326 -2.54381,22.00883 -1.71289,36.25981 11.70779,11.09805 22.914,18.70836 33.5039,23.00387 17.06367,6.92133 36.39457,8.68728 50.7715,-1.87303 14.17709,-10.4135 11.49575,-10.74047 19.61132,-4.90431 3.39944,2.44464 6.07535,5.78423 9.73437,7.76171 7.65338,4.1362 16.43144,5.59454 24.31836,4.1133 5.81723,-1.09251 11.33863,-3.45838 15.39258,-7.1582 10.07316,-9.19321 8.55461,-10.31739 16.90234,-2.76952 6.44797,5.83011 13.88169,10.36418 21.83789,11.60349 7.38429,1.15022 14.36688,0.29027 20.66211,-2.68555 3.38369,-1.59949 6.42784,-3.73379 8.63867,-5.81249 2.21084,-2.07871 3.67646,-4.06428 5.25,-5.96485 3.81654,-4.60978 5.12707,-0.90743 8.86133,3.48438 5.09201,5.98866 12.34881,9.63432 19.40236,11.14061 10.4106,2.2232 22.37496,1.73205 31.87696,-2.90819 4.42881,-2.1628 6.81793,-4.97575 7.5332,-7.61719 0.71528,-2.64143 -0.25927,-5.14462 -2.60938,-6.78708 -2.35011,-1.64247 -6.07544,-2.42385 -10.85938,-1.62308 1.49265,-0.31408 2.89557,-0.76457 4.20506,-1.33202 1.3095,-0.56746 2.49789,-1.29377 3.64649,-2.03709 3.95834,-2.56173 5.38205,-2.12584 8.68751,4.76171 4.29782,8.95533 13.8344,16.17944 22.71096,17.66797 7.46471,1.25174 14.12337,1.02187 19.86523,-0.40626 11.33114,-2.81825 19.78568,-10.88659 23.86522,-20.61525 2.19258,-5.22863 3.32814,-11.2535 3.709,-17.83007 0.77874,-13.44801 -3.27923,-29.93318 -12.43362,-38.44335 -4.83904,-4.49851 -9.66123,-2.11506 -11.79099,3.0918 -2.53149,6.18898 0.51473,11.54344 1.33591,16.90235 -6.30187,-7.25805 -16.36192,-9.2194 -25.24022,-7.94728 -4.72456,0.67695 -9.55944,2.52034 -13.59571,5.63671 -8.02175,6.19336 -11.52775,1.39854 -21.78709,-4.55857 -2.77357,-1.61053 -5.6965,-2.836 -8.65822,-3.7754 -3.03053,-0.96121 -6.10253,-1.5241 -9.08008,-1.75197 -9.51413,-0.72801 -18.70097,1.66889 -24.83204,6.83207 -10.60151,8.92781 -12.27968,4.7125 -20.38476,-1.17385 -2.78563,-2.02307 -5.8435,-3.55635 -8.93945,-4.88674 -4.16151,-1.78825 -8.60882,-3.02139 -13.25,-3.07419 -2.86176,-0.034 -5.36962,0.28346 -7.83594,0.74411 -5.6221,1.05011 -10.79256,3.38797 -14.99414,7.07426 -1.11306,0.97651 -2.17472,2.00889 -3.33594,2.92769 -6.38797,5.0544 -10.38542,2.02712 -18.14453,-3.56832 -7.03156,-5.07077 -15.11934,-8.95533 -24.07617,-9.01368 -2.37617,-0.0151 -4.77803,0.19313 -7.17383,0.64063 -7.74107,1.44551 -13.52738,6.24079 -19.42578,10.46679 -7.32075,5.24504 -11.59718,-2.06434 -18.59766,-5.41799 -2.88289,-1.38108 -7.40231,-3.6528 -14.68358,-3.53121 7.99994,-12.68039 -3.99178,-28.18957 -14.44141,-32.88673 -5.23178,-2.3517 -10.98746,-3.57441 -16.57226,-3.53125 z"
         id="path4638-3" />
    </clipPath>
    <clipPath
       clipPathUnits="userSpaceOnUse"
       id="clipPath5051">
      <path
         id="path5053"
         d="m 62.49386,131.48397 c -1.477645,0.0114 -2.910078,0.35782 -4.11448,1.0759 -3.647215,2.17451 -5.228775,6.39843 -5.904548,9.97612 -0.499419,2.64405 -0.673049,5.82318 -0.453199,9.59375 3.097686,2.93636 6.062654,4.94993 8.864571,6.08644 4.514762,1.83128 9.629394,2.29851 13.43329,-0.49557 3.751024,-2.75524 3.041584,-2.84175 5.188831,-1.2976 0.899435,0.64681 1.607436,1.53041 2.575552,2.05361 2.024957,1.09438 4.347485,1.48022 6.434233,1.08832 1.539142,-0.28906 3.000012,-0.91503 4.07262,-1.89394 2.66519,-2.43238 2.263404,-2.72982 4.472072,-0.73277 1.706031,1.54255 3.672868,2.74219 5.777948,3.07009 1.95376,0.30433 3.80123,0.0768 5.46685,-0.71055 0.89526,-0.4232 1.70065,-0.98791 2.2856,-1.5379 0.58495,-0.54999 0.97277,-1.07531 1.3891,-1.57818 1.00979,-1.21967 1.35654,-0.24009 2.34456,0.92191 1.34726,1.5845 3.26729,2.54908 5.13354,2.94762 2.75447,0.58821 5.92004,0.45826 8.43411,-0.76946 1.17179,-0.57224 1.80391,-1.3165 1.99316,-2.01538 0.18925,-0.69889 -0.0686,-1.36119 -0.6904,-1.79576 -0.62181,-0.43457 -1.60746,-0.64131 -2.87321,-0.42944 0.39493,-0.0831 0.76612,-0.20228 1.11259,-0.35242 0.34647,-0.15014 0.66091,-0.34232 0.9648,-0.53899 1.04732,-0.67778 1.42401,-0.56245 2.29857,1.25988 1.13714,2.36942 3.66035,4.28081 6.00894,4.67464 1.97504,0.3312 3.73681,0.27037 5.25601,-0.10748 2.99803,-0.74567 5.23495,-2.88041 6.31434,-5.45445 0.58011,-1.38341 0.88057,-2.97749 0.98134,-4.71754 0.20604,-3.55812 -0.86763,-7.91982 -3.28973,-10.17147 -1.28033,-1.19023 -2.5562,-0.55961 -3.1197,0.81803 -0.66979,1.6375 0.13619,3.0542 0.35346,4.47207 -1.66737,-1.92034 -4.32909,-2.43928 -6.67814,-2.10271 -1.25004,0.17912 -2.52926,0.66686 -3.5972,1.49139 -2.12241,1.63866 -3.05005,0.37002 -5.7645,-1.20614 -0.73385,-0.42609 -1.5072,-0.75034 -2.29082,-0.9989 -0.80183,-0.25432 -1.61462,-0.40325 -2.40244,-0.46353 -2.51727,-0.19263 -4.94796,0.44156 -6.57014,1.80764 -2.80499,2.36215 -3.249,1.24686 -5.39347,-0.31057 -0.73703,-0.53529 -1.54609,-0.94095 -2.36523,-1.29295 -1.10106,-0.47315 -2.27775,-0.79942 -3.50573,-0.81338 -0.75717,-0.009 -1.42071,0.075 -2.07326,0.19688 -1.48751,0.27783 -2.855528,0.8964 -3.967198,1.87172 -0.294489,0.25838 -0.57539,0.53154 -0.882629,0.77463 -1.69015,1.3373 -2.747809,0.53633 -4.80074,-0.94413 -1.860434,-1.34164 -4.000326,-2.36942 -6.370154,-2.38487 -0.628695,-0.004 -1.264187,0.0511 -1.898075,0.1695 -2.048159,0.38247 -3.57912,1.65122 -5.139738,2.76934 -1.936951,1.38776 -3.068423,-0.54618 -4.920631,-1.4335 -0.762767,-0.36541 -1.958528,-0.96647 -3.885033,-0.93431 2.116653,-3.35502 -1.056156,-7.45849 -3.820957,-8.70128 -1.384239,-0.62223 -2.907098,-0.94573 -4.384743,-0.93431 z"
         style="fill:#000000;fill-opacity:1;fill-rule:evenodd;stroke:none;stroke-width:1;stroke-linecap:butt;stroke-linejoin:miter;stroke-miterlimit:4;stroke-dasharray:none;stroke-opacity:1" />
    </clipPath>
    <clipPath
       clipPathUnits="userSpaceOnUse"
       id="clipPath6190">
      <path
         id="path6192"
         d="m 62.597854,215.62865 c 1.477651,-0.0114 3.00051,0.31209 4.384749,0.93431 2.764801,1.24279 5.937613,5.34626 3.820962,8.70128 1.9265,-0.0322 3.122261,0.5689 3.885031,0.93431 2.069798,0.99156 3.012069,2.91624 5.721609,0.93896 2.16771,-1.58187 3.997611,-2.14797 6.28799,-2.23087 1.83633,-0.0665 3.67934,0.70177 5.422929,1.65881 3.172751,1.74151 3.943569,3.26482 6.421831,0.82527 0.558441,-0.54972 1.280208,-0.91195 1.995215,-1.23248 2.90691,-1.30312 6.99536,-0.90468 10.0738,1.12706 2.21202,1.45991 2.59938,2.68561 5.39347,0.31058 1.38319,-1.17574 4.23323,-1.83661 6.05906,-1.89911 1.77455,-0.0608 3.59347,0.56492 5.20433,1.55391 0.80827,0.49624 1.53623,1.12903 2.12649,1.86914 0.77052,0.96611 1.31234,1.09768 3.63802,-0.66301 1.0757,-0.81438 2.34715,-1.31227 3.59719,-1.49138 2.34905,-0.33658 5.01078,0.18236 6.67815,2.10271 -0.21727,-1.41788 -1.02326,-2.83458 -0.35347,-4.47208 0.5635,-1.37765 1.83938,-2.00827 3.11971,-0.81804 2.4221,2.25165 3.49576,6.61336 3.28972,10.17147 -0.10076,1.74006 -0.40122,3.33414 -0.98134,4.71755 -1.07937,2.57404 -3.31631,4.70878 -6.31434,5.45445 -1.5192,0.37784 -3.28097,0.43868 -5.25601,0.10748 -2.34859,-0.39383 -4.87179,-2.30522 -6.00893,-4.67465 -0.87456,-1.82233 -1.24421,-1.92664 -2.29857,-1.25987 -0.29659,0.20752 -0.61833,0.38885 -0.9648,0.53899 -0.34647,0.15014 -0.71766,0.26933 -1.1126,0.35243 1.26576,-0.21188 2.25141,-0.005 2.87322,0.42943 0.6218,0.43457 0.87964,1.09688 0.69039,1.79576 -0.18925,0.69888 -0.82137,1.44314 -1.99316,2.01538 -2.51407,1.22773 -5.67964,1.35768 -8.43411,0.76946 -1.86625,-0.39854 -3.78627,-1.36313 -5.13354,-2.94763 -1.0812,-1.2716 -1.34488,-2.29373 -2.65978,-0.53485 -0.83572,1.11789 -1.99706,2.08502 -3.35949,2.72904 -1.66561,0.78735 -3.51309,1.01488 -5.46685,0.71055 -2.10506,-0.3279 -4.071905,-1.52754 -5.777925,-3.0701 -2.208671,-1.99704 -1.80688,-1.6996 -4.47207,0.73277 -1.07261,0.97891 -2.533481,1.60488 -4.072631,1.89394 -2.086739,0.39191 -4.40927,0.006 -6.43423,-1.0883 -0.96811,-0.52321 -1.676109,-1.40681 -2.575549,-2.05362 -2.147239,-1.54415 -1.437809,-1.45765 -5.188831,1.29759 -3.803899,2.79408 -8.91853,2.32686 -13.433293,0.49558 -2.801919,-1.13651 -5.766885,-3.15008 -8.864571,-6.08645 -0.21985,-3.77056 -0.04622,-6.94968 0.4532,-9.59373 0.675772,-3.57771 2.257332,-7.80162 5.90455,-9.97614 1.204399,-0.71808 2.636832,-1.0645 4.114474,-1.0759 z m -1.008721,3.4091 c -0.704675,-0.0207 -1.45256,0.23733 -2.073259,0.7152 -1.268431,0.97654 -1.667891,2.58469 -0.892453,3.59203 0.775518,1.00743 2.432529,1.03247 3.701063,0.0558 1.268421,-0.97658 1.66796,-2.58475 0.892461,-3.59203 -0.365202,-0.47435 -0.948701,-0.75099 -1.62678,-0.77101 h -5.29e-4 z m 23.30142,8.39121 c -0.673608,-0.0193 -1.402098,0.2071 -2.0159,0.709 -1.239247,1.01333 -1.667888,2.5847 -0.892447,3.59203 0.775517,1.00743 2.432529,1.03248 3.701068,0.0558 1.26841,-0.97658 1.697061,-2.60785 0.89245,-3.59202 -0.392819,-0.48049 -1.01156,-0.74551 -1.685171,-0.76482 z m 18.180787,0.47853 c -0.77899,0.002 -1.58062,0.33077 -2.07841,0.68006 -1.310385,0.91947 -1.667887,2.5847 -0.89246,3.59203 0.77552,1.00743 2.43252,1.03249 3.70106,0.0558 1.26841,-0.97657 1.67788,-2.59247 0.89245,-3.59203 -0.42444,-0.54015 -1.01674,-0.73709 -1.62264,-0.73587 z m 16.93023,0.75344 c -0.63705,0.0102 -1.3531,0.25446 -2.08824,0.67489 -1.38959,0.79472 -1.66789,2.58471 -0.89245,3.59203 0.77551,1.00743 2.43252,1.03249 3.70107,0.0558 1.2684,-0.97657 1.69136,-2.60321 0.89245,-3.59203 -0.4177,-0.51699 -0.97577,-0.74089 -1.61283,-0.7307 z m 17.13488,0.33073 c -0.71116,-0.022 -1.45963,0.32872 -2.15336,0.79375 -1.32969,0.89133 -1.66789,2.5847 -0.89245,3.59203 0.77552,1.00742 2.43252,1.03249 3.70106,0.0558 1.26841,-0.97657 1.67828,-2.59278 0.89246,-3.59203 -0.46389,-0.58987 -0.99459,-0.83244 -1.54771,-0.84956 z"
         style="fill:#000000;fill-opacity:1;fill-rule:evenodd;stroke:none;stroke-width:1;stroke-linecap:butt;stroke-linejoin:miter;stroke-miterlimit:4;stroke-dasharray:none;stroke-opacity:1" />
    </clipPath>
    <clipPath
       clipPathUnits="userSpaceOnUse"
       id="clipPath6355">
      <path
         id="path6357"
         d="m 62.597854,215.62865 c 1.477651,-0.0114 3.00051,0.31209 4.384749,0.93431 2.764801,1.24279 5.93761,5.34626 3.820962,8.70128 1.9265,-0.0322 3.122258,0.5689 3.885028,0.93431 2.069801,0.99156 3.012072,2.91624 5.721612,0.93896 2.16771,-1.58187 3.997608,-2.14797 6.28799,-2.23087 1.83633,-0.0665 3.679338,0.70177 5.422929,1.65881 3.172751,1.74151 3.943569,3.26482 6.421829,0.82527 0.55844,-0.54972 1.28021,-0.91195 1.995217,-1.23248 2.90691,-1.30312 6.99536,-0.90468 10.0738,1.12706 2.21202,1.45991 2.59938,2.68561 5.39347,0.31058 1.38319,-1.17574 4.23323,-1.83661 6.05906,-1.89911 1.77455,-0.0608 3.59347,0.56492 5.20433,1.55391 0.80827,0.49624 1.53623,1.12903 2.12649,1.86914 0.77052,0.96611 1.31234,1.09768 3.63802,-0.66301 1.0757,-0.81438 2.34715,-1.31227 3.59719,-1.49138 2.34905,-0.33658 5.01078,0.18236 6.67815,2.10271 -0.21727,-1.41788 -1.02326,-2.83458 -0.35347,-4.47208 0.5635,-1.37765 1.83938,-2.00827 3.11971,-0.81804 2.4221,2.25165 3.49576,6.61336 3.28972,10.17147 -0.10076,1.74006 -0.40122,3.33414 -0.98134,4.71755 -1.07937,2.57404 -3.31631,4.70878 -6.31434,5.45445 -1.5192,0.37784 -3.28097,0.43868 -5.25601,0.10748 -2.34859,-0.39383 -4.87179,-2.30522 -6.00893,-4.67465 -0.87456,-1.82233 -1.24421,-1.92664 -2.29857,-1.25987 -0.29659,0.20752 -0.61833,0.38885 -0.9648,0.53899 -0.34647,0.15014 -0.71766,0.26933 -1.1126,0.35243 1.26576,-0.21188 2.25141,-0.005 2.87322,0.42943 0.6218,0.43457 0.87964,1.09688 0.69039,1.79576 -0.18925,0.69888 -0.82137,1.44314 -1.99316,2.01538 -2.51407,1.22773 -5.67964,1.35768 -8.43411,0.76946 -1.86625,-0.39854 -3.78627,-1.36313 -5.13354,-2.94763 -1.0812,-1.2716 -1.34488,-2.29373 -2.65978,-0.53485 -0.83572,1.11789 -1.99706,2.08502 -3.35949,2.72904 -1.66561,0.78735 -3.51309,1.01488 -5.46685,0.71055 -2.10506,-0.3279 -4.071905,-1.52754 -5.777925,-3.0701 -2.208671,-1.99704 -1.806882,-1.6996 -4.47207,0.73277 -1.07261,0.97891 -2.533481,1.60488 -4.072631,1.89394 -2.086739,0.39191 -4.40927,0.006 -6.43423,-1.0883 -0.96811,-0.52321 -1.676109,-1.40681 -2.575549,-2.05362 -2.147242,-1.54415 -1.437812,-1.45765 -5.188831,1.29759 -3.803899,2.79408 -8.91853,2.32686 -13.433293,0.49558 -2.801919,-1.13651 -5.766885,-3.15008 -8.864571,-6.08645 -0.21985,-3.77056 -0.04622,-6.94968 0.4532,-9.59373 0.675772,-3.57771 2.257332,-7.80162 5.90455,-9.97614 1.204399,-0.71808 2.636832,-1.0645 4.114474,-1.0759 z m -1.008721,3.4091 c -0.704675,-0.0207 -1.45256,0.23733 -2.073259,0.7152 -1.268431,0.97654 -1.667891,2.58469 -0.892453,3.59203 0.775518,1.00743 2.432529,1.03247 3.701063,0.0558 1.268421,-0.97658 1.66796,-2.58475 0.892461,-3.59203 -0.365202,-0.47435 -0.948701,-0.75099 -1.62678,-0.77101 h -5.29e-4 z m 23.30142,8.39121 c -0.67361,-0.0193 -1.402098,0.2071 -2.0159,0.709 -1.23925,1.01333 -1.667888,2.5847 -0.89245,3.59203 0.77552,1.00743 2.432532,1.03248 3.701071,0.0558 1.26841,-0.97658 1.697059,-2.60785 0.89245,-3.59202 -0.392821,-0.48049 -1.01156,-0.74551 -1.685171,-0.76482 z m 18.180787,0.47853 c -0.77899,0.002 -1.58062,0.33077 -2.07841,0.68006 -1.310388,0.91947 -1.667887,2.5847 -0.89246,3.59203 0.77552,1.00743 2.43252,1.03249 3.70106,0.0558 1.26841,-0.97657 1.67788,-2.59247 0.89245,-3.59203 -0.42444,-0.54015 -1.01674,-0.73709 -1.62264,-0.73587 z m 16.93023,0.75344 c -0.63705,0.0102 -1.3531,0.25446 -2.08824,0.67489 -1.38959,0.79472 -1.66789,2.58471 -0.89245,3.59203 0.77551,1.00743 2.43252,1.03249 3.70107,0.0558 1.2684,-0.97657 1.69136,-2.60321 0.89245,-3.59203 -0.4177,-0.51699 -0.97577,-0.74089 -1.61283,-0.7307 z m 17.13488,0.33073 c -0.71116,-0.022 -1.45963,0.32872 -2.15336,0.79375 -1.32969,0.89133 -1.66789,2.5847 -0.89245,3.59203 0.77552,1.00742 2.43252,1.03249 3.70106,0.0558 1.26841,-0.97657 1.67828,-2.59278 0.89246,-3.59203 -0.46389,-0.58987 -0.99459,-0.83244 -1.54771,-0.84956 z"
         style="fill:#f4eed7;fill-opacity:1;fill-rule:evenodd;stroke:none;stroke-width:1;stroke-linecap:butt;stroke-linejoin:miter;stroke-miterlimit:4;stroke-dasharray:none;stroke-opacity:1" />
    </clipPath>
  </defs>
  <metadata
     id="metadata5">
    <rdf:RDF>
      <cc:Work
         rdf:about="">
        <dc:format>image/svg+xml</dc:format>
        <dc:type
           rdf:resource="http://purl.org/dc/dcmitype/StillImage" />
        <dc:title></dc:title>
      </cc:Work>
    </rdf:RDF>
  </metadata>
  <g
     style="fill:#ff6600"
     id="layer1"
     transform="matrix(5.4134577,0,0,5.4134577,-6.7760078,-13.805272)">
    <path
       style="fill:#ff6600;fill-rule:evenodd;stroke:none;stroke-width:0.20578004px;stroke-linecap:butt;stroke-linejoin:miter;stroke-opacity:1"
       d="m 14.719069,12.234952 -0.02431,-0.0044 -0.02431,-0.0043 c -1.276345,-0.625599 -1.873598,-1.45095 -1.718058,-2.3916046 0.15554,-0.9406545 1.596844,-1.3354092 2.227269,-0.3370267 0.935414,-0.7205572 2.152934,0.1459488 1.975369,1.0826953 -0.177565,0.936747 -1.022303,1.506247 -2.435963,1.654563 z m -5.4381389,8e-6 C 7.8672707,12.086644 7.0225322,11.517144 6.8449671,10.580397 6.6674027,9.6436503 7.8849224,8.7771444 8.8203362,9.4977015 9.450761,8.4993192 10.892065,8.8940738 11.047605,9.8347282 11.203145,10.775383 10.605892,11.600734 9.3295463,12.226333 l -0.024306,0.0043 z M 12,13.68726 c 0.524996,0 0.844073,0.843454 1.36864,0.867065 0.410819,0.01849 0.718455,-0.689938 1.117668,-0.580495 0.402671,0.110392 0.355302,0.973232 0.753742,1.101225 0.769637,0.247237 1.81878,-1.68667 2.251046,-0.936333 0.570748,0.990718 -1.20245,2.333901 -2.251046,2.488101 -0.286905,0.04219 -0.465245,-0.50477 -0.753742,-0.479353 -0.476612,0.042 -0.642977,0.936635 -1.117668,1.000082 -0.500221,0.06686 -0.864821,-0.713511 -1.36864,-0.713511 -0.503819,0 -0.868415,0.780339 -1.36864,0.713511 C 10.156593,17.08413 9.9901021,16.18939 9.5134121,16.14747 9.224992,16.122106 9.0467778,16.668977 8.7599499,16.626823 7.7113436,16.472715 5.9381561,15.12944 6.508904,14.138722 6.9411693,13.388385 7.9903326,15.322368 8.7599499,15.075055 9.1583249,14.947039 9.1108092,14.084269 9.5134121,13.97383 9.9126936,13.864302 10.220457,14.572843 10.63136,14.554325 11.155926,14.530689 11.475004,13.68726 12,13.68726 Z M 11.547092,3.4032324 c -0.372426,-0.021762 -0.809966,0.3379418 -0.947138,0.717804 -0.228861,0.6337776 0.37525,1.2742706 0.615443,1.9400935 -0.213275,0.029047 -0.418718,0.068832 -0.621229,0.1213706 C 9.9337012,6.0933897 9.3445389,5.9866527 9.3445389,5.9866527 9.1451468,5.9624251 8.9491612,5.952535 8.7569166,5.9560048 5.8732399,6.0080161 3.8336102,9.0840054 3.8336102,12.431258 c 0,3.570403 2.3206313,6.832573 5.5109287,6.444911 0,0 0.2538892,-0.04389 0.5746728,-0.09532 C 10.563143,19.03871 11.242486,19.173772 12,19.173772 c 0.757514,0 1.436865,-0.135062 2.080788,-0.392923 0.320784,0.05144 0.574673,0.09532 0.574673,0.09532 3.190297,0.387662 5.510929,-2.874508 5.510929,-6.444911 0,-3.5704023 -2.320632,-6.8322664 -5.510929,-6.4446037 0,0 -0.589162,0.1067373 -1.249629,0.1958479 -0.192439,-0.049926 -0.38823,-0.08772 -0.590103,-0.1164671 -0.0658,-0.9896001 -0.313512,-2.3098824 -1.11409,-2.6290866 -0.04946,-0.019728 -0.101341,-0.030605 -0.154547,-0.033711 z"
       id="path8417" />
  </g>
  <path
     id="path22300"
     transform="scale(0.26458334)"
     d="M 396.52539 371.8125 C 394.25983 371.89414 392.57813 375.13867 393.51953 381.99414 C 389.10145 376.13921 375.86893 376.84461 371.81055 387.3457 C 367.75218 397.84686 375.10325 406.72514 382.43555 407.86523 C 395.94222 409.96525 403.31474 402.20868 403.85352 390.32422 C 404.39724 378.32966 399.83656 371.69293 396.52539 371.8125 z M 385.83398 381.08398 C 386.82562 381.03712 387.78222 381.32855 388.51953 382.08789 C 390.03025 383.64426 389.63042 386.45822 387.6543 388.34375 C 385.67794 390.22947 382.86047 390.48565 381.36328 388.91602 C 379.8661 387.34653 380.20105 384.48812 382.23047 382.66016 C 383.22645 381.76312 384.55907 381.14427 385.83398 381.08398 z "
     style="opacity:1;vector-effect:none;fill:#d493ff;fill-opacity:1;fill-rule:evenodd;stroke:none;stroke-width:5.09195471px;stroke-linecap:butt;stroke-linejoin:miter;stroke-miterlimit:4;stroke-dasharray:none;stroke-dashoffset:0;stroke-opacity:1" />
  <path
     id="path22296"
     transform="scale(0.26458334)"
     d="M 307.18359 376.00195 C 300.56009 376.03446 294.64527 379.56746 292.17383 385.00586 C 286.22941 398.08612 295.92038 408.55318 308.47266 408.11328 C 324.2587 407.56 323.26838 397.5733 314.62891 399.01953 C 320.75731 397.73003 323.52427 391.37174 321.98047 386.13672 C 320.08834 379.72086 313.02783 375.97391 307.18359 376.00195 z M 304.63477 379.51367 C 305.62654 379.46681 306.58295 379.75552 307.32031 380.51562 C 308.83135 382.0723 308.42984 384.88776 306.45312 386.77344 C 304.47665 388.65897 301.66145 388.91523 300.16406 387.3457 C 298.66652 385.7761 299.00134 382.91612 301.03125 381.08789 C 302.02737 380.19082 303.35963 379.57399 304.63477 379.51367 z "
     style="opacity:1;vector-effect:none;fill:#37c5c8;fill-opacity:1;fill-rule:evenodd;stroke:none;stroke-width:5.09195471px;stroke-linecap:butt;stroke-linejoin:miter;stroke-miterlimit:4;stroke-dasharray:none;stroke-dashoffset:0;stroke-opacity:1" />
  <path
     id="path22292"
     transform="scale(0.26458334)"
     d="M 226.62695 375.78125 C 225.58507 375.75857 224.52769 375.84022 223.46484 376.03906 C 214.96195 377.62678 208.29065 386.26099 209.93555 395.07031 C 211.58044 403.87964 220.91703 409.52716 229.41992 407.93945 C 237.92285 406.35179 243.48279 397.92456 241.83789 389.11523 C 240.39863 381.40704 233.92031 375.96053 226.62695 375.7832 L 226.62695 375.78125 z M 221.95703 379.90625 C 222.94881 379.85901 223.90525 380.15036 224.64258 380.91016 C 226.15284 382.46694 225.75155 385.2806 223.77539 387.16602 C 221.79895 389.05162 218.98161 389.30792 217.48438 387.73828 C 215.9873 386.16879 216.32232 383.31058 218.35156 381.48242 C 219.34765 380.58497 220.68189 379.9665 221.95703 379.90625 z "
     style="opacity:1;vector-effect:none;fill:#b7db24;fill-opacity:1;fill-rule:evenodd;stroke:none;stroke-width:5.09195471px;stroke-linecap:butt;stroke-linejoin:miter;stroke-miterlimit:4;stroke-dasharray:none;stroke-dashoffset:0;stroke-opacity:1" />
  <path
     id="path22288"
     transform="scale(0.26458334)"
     d="M 145.2207 375.85352 C 144.14788 375.84709 143.06405 375.94079 141.98242 376.14258 C 133.32925 377.75838 127.56323 385.75585 129.23828 394.72656 C 130.9133 403.69723 139.85077 409.55329 148.50391 407.9375 C 157.15708 406.32179 162.81372 397.74024 161.13867 388.76953 C 159.67301 380.92017 152.73025 375.90275 145.2207 375.85352 z M 141.25 380.04297 C 142.40833 380.00895 143.51785 380.38119 144.26367 381.30664 C 145.6247 382.99579 144.90658 385.76912 142.74219 387.43555 C 140.57756 389.10213 137.7491 389.06046 136.42578 387.3418 C 135.10261 385.62287 135.75733 382.84105 137.94922 381.21094 C 138.8856 380.51456 140.0917 380.07642 141.25 380.04297 z "
     style="opacity:1;vector-effect:none;fill:#ffa030;fill-opacity:1;fill-rule:evenodd;stroke:none;stroke-width:5.09195471px;stroke-linecap:butt;stroke-linejoin:miter;stroke-miterlimit:4;stroke-dasharray:none;stroke-dashoffset:0;stroke-opacity:1" />
  <path
     id="path4708-0"
     transform="scale(0.26458334)"
     d="M 52.330078 360.20117 C 42.057035 360.20392 32.58534 369.75606 34.085938 395.49219 C 69.401088 428.96822 96.275928 388.14742 65.957031 376.70312 C 70.53478 370.13725 62.603155 360.19853 52.330078 360.20117 z M 49.083984 365.95703 C 50.241438 365.99105 51.238069 366.46179 51.861328 367.27148 C 53.184677 368.99023 52.502282 371.734 50.337891 373.40039 C 48.173348 375.06704 45.346665 375.02577 44.023438 373.30664 C 42.700104 371.58788 43.382476 368.84411 45.546875 367.17773 C 46.606046 366.36233 47.881539 365.92181 49.083984 365.95703 z "
     style="opacity:1;vector-effect:none;fill:#ff5555;fill-opacity:1;fill-rule:evenodd;stroke:none;stroke-width:5.09195471px;stroke-linecap:butt;stroke-linejoin:miter;stroke-miterlimit:4;stroke-dasharray:none;stroke-dashoffset:0;stroke-opacity:1" />
</svg>
